<svg width="40" height="40" viewBox="0 0 40 40" fill="none" xmlns="http://www.w3.org/2000/svg">
<path d="M8.33337 16.6667H11.6667C15 16.6667 16.6667 15 16.6667 11.6667V8.33334C16.6667 5 15 3.33334 11.6667 3.33334H8.33337C5.00004 3.33334 3.33337 5 3.33337 8.33334V11.6667C3.33337 15 5.00004 16.6667 8.33337 16.6667Z" stroke="#121212" stroke-width="1.37086" stroke-miterlimit="10" stroke-linecap="round" stroke-linejoin="round"/>
<path d="M28.3334 16.6667H31.6667C35 16.6667 36.6667 15 36.6667 11.6667V8.33334C36.6667 5 35 3.33334 31.6667 3.33334H28.3334C25 3.33334 23.3334 5 23.3334 8.33334V11.6667C23.3334 15 25 16.6667 28.3334 16.6667Z" stroke="#121212" stroke-width="1.37086" stroke-miterlimit="10" stroke-linecap="round" stroke-linejoin="round"/>
<path d="M28.3334 36.6667H31.6667C35 36.6667 36.6667 35 36.6667 31.6667V28.3333C36.6667 25 35 23.3333 31.6667 23.3333H28.3334C25 23.3333 23.3334 25 23.3334 28.3333V31.6667C23.3334 35 25 36.6667 28.3334 36.6667Z" stroke="#121212" stroke-width="1.83597" stroke-miterlimit="10" stroke-linecap="round" stroke-linejoin="round"/>
<path d="M8.33337 36.6667H11.6667C15 36.6667 16.6667 35 16.6667 31.6667V28.3333C16.6667 25 15 23.3333 11.6667 23.3333H8.33337C5.00004 23.3333 3.33337 25 3.33337 28.3333V31.6667C3.33337 35 5.00004 36.6667 8.33337 36.6667Z" stroke="#292D32" stroke-width="1.83597" stroke-miterlimit="10" stroke-linecap="round" stroke-linejoin="round"/>
</svg>
