<svg width="54" height="58" viewBox="0 0 54 58" fill="none" xmlns="http://www.w3.org/2000/svg">
<path d="M52.5934 0.313217C52.4868 0.493153 52.2136 0.886345 51.9936 1.19957C51.7671 1.51279 51.3339 2.13923 51.014 2.59907C50.7008 3.0589 50.2743 3.67202 50.0677 3.96524C49.8611 4.25847 49.5612 4.68499 49.4079 4.91824C49.248 5.14482 48.9814 5.52469 48.8148 5.7646C48.0884 6.80423 47.8618 7.14411 47.3686 7.86385C47.0754 8.2837 46.6755 8.87016 46.4689 9.16339C46.2624 9.45662 45.9691 9.87647 45.8158 10.0964C45.6626 10.3163 45.4027 10.6895 45.2427 10.9294C44.9295 11.3759 44.4697 12.0424 43.7299 13.1286C43.49 13.4752 43.1701 13.9417 43.0168 14.1616C42.8636 14.3815 42.6037 14.7547 42.4371 14.9946C42.2771 15.2346 41.9039 15.7744 41.6173 16.1942C41.3241 16.6141 40.9309 17.1872 40.7443 17.4604C40.5511 17.7337 40.1645 18.2868 39.8913 18.6933C39.6114 19.0932 39.2449 19.633 39.0649 19.8929C38.6051 20.5593 37.9387 21.5323 37.4855 22.1921C37.2722 22.5053 36.9657 22.9518 36.7991 23.1917C36.6325 23.4316 36.2792 23.9381 36.0193 24.3246C35.4862 25.1044 34.9797 25.8374 34.3266 26.7904C34.0867 27.137 33.7601 27.6168 33.6002 27.8567C33.4336 28.0966 33.247 28.3632 33.1804 28.4498C33.0004 28.6764 33.0204 28.7564 33.3403 29.2695C33.4936 29.5228 33.6535 29.7827 33.6868 29.8427C33.7935 30.0226 34.1067 30.5091 34.5132 31.1222C34.7131 31.4354 34.9131 31.742 34.9531 31.802C35.073 32.0086 35.5862 32.8083 35.9194 33.3214C36.2126 33.7746 36.6658 34.481 36.8724 34.8142C36.919 34.8875 37.079 35.1408 37.2389 35.374C37.3922 35.6073 37.5188 35.8072 37.5188 35.8205C37.5188 35.8339 37.6454 36.0338 37.8054 36.2671C37.9586 36.5003 38.1186 36.7535 38.1652 36.8269C38.2119 36.8935 38.3718 37.1601 38.5318 37.4066C38.6917 37.6532 38.8517 37.9131 38.885 37.9731C38.9849 38.1397 39.8446 39.4592 39.9779 39.6525C40.0446 39.7458 40.1112 39.8658 40.1379 39.9191C40.1645 39.9724 40.3311 40.2456 40.5111 40.5189C40.6977 40.7921 40.9709 41.2253 41.1308 41.4719C41.2908 41.7251 41.4641 41.9983 41.5174 42.085C41.5707 42.1716 41.7506 42.4582 41.9172 42.7181C42.0838 42.978 42.2638 43.2646 42.3171 43.3445C42.4704 43.5844 43.0035 44.4375 43.1368 44.6574C43.1968 44.7707 43.2368 44.8906 43.2168 44.924C43.1701 44.9973 38.0586 45.0039 35.133 44.9373L33.1804 44.8973L32.6006 43.9376C32.2807 43.4112 31.9675 42.898 31.9075 42.7981C31.8408 42.6981 31.7609 42.5581 31.7209 42.4848C31.6809 42.4115 31.5943 42.2582 31.5209 42.1516C31.4476 42.0383 31.361 41.8917 31.321 41.8184C31.281 41.7451 31.2011 41.6051 31.1344 41.5052C31.0744 41.4119 30.7545 40.8921 30.4213 40.3523C30.0948 39.8191 29.7749 39.306 29.7216 39.2193C29.6683 39.1327 29.395 38.6995 29.1218 38.253C28.8486 37.8065 28.5753 37.3733 28.522 37.2867C28.4687 37.2001 28.2888 36.9135 28.1222 36.6536C27.9555 36.3937 27.7689 36.1004 27.709 36.0005C27.6423 35.9005 27.569 35.7739 27.5424 35.7206C27.5157 35.6673 27.3691 35.434 27.2091 35.2008C27.0492 34.9675 26.9226 34.7676 26.9226 34.7543C26.9226 34.6876 26.5694 34.2144 26.4894 34.1745C26.4294 34.1345 26.3495 34.2211 26.2362 34.441C26.1429 34.621 26.0029 34.8809 25.9229 35.0275C25.8363 35.1674 25.623 35.574 25.4364 35.9205C25.2565 36.2671 24.9899 36.7602 24.8567 37.0201C23.3572 39.8458 22.9573 40.6255 21.5178 43.4978C20.8181 44.8973 20.265 46.0769 20.2916 46.1169C20.4049 46.2968 20.5449 46.1435 21.6445 44.5708C21.8177 44.3242 22.1176 43.891 22.3176 43.6111C22.844 42.858 23.837 41.3919 25.1765 39.3726C25.823 38.393 26.3894 37.5932 26.4294 37.5932C26.4761 37.5866 26.5227 37.6399 26.5427 37.6999C26.5694 37.7665 26.7293 38.0864 26.9159 38.4196C27.0959 38.7462 27.3491 39.2127 27.4691 39.4526C27.9755 40.4056 28.3154 41.0453 28.5553 41.4852C28.6953 41.7451 28.9285 42.1783 29.0751 42.4515C29.3684 42.9913 29.6283 43.4845 29.9282 44.0309C30.0348 44.2242 30.2081 44.5441 30.3147 44.7307C30.5213 45.1172 30.8612 45.7303 31.0944 46.1502C31.1811 46.2968 31.3277 46.57 31.4276 46.7566C31.5276 46.9432 31.6609 47.1632 31.7209 47.2498L31.8342 47.4031L39.6181 47.3298C44.3364 47.2898 47.4219 47.2365 47.4619 47.1965C47.5019 47.1565 47.3686 46.9166 47.1087 46.5434C46.6289 45.857 46.249 45.3105 45.5426 44.2842C45.2694 43.8777 44.8828 43.3245 44.6896 43.0513C44.4963 42.7781 44.1364 42.2516 43.8832 41.885C43.41 41.192 42.9036 40.4656 42.3904 39.7192C42.2305 39.4792 41.8706 38.9661 41.604 38.5729C41.3374 38.173 40.8843 37.5133 40.6044 37.1068C39.878 36.0405 39.2449 35.1141 38.4385 33.9212C37.6388 32.735 36.8924 31.642 36.3925 30.9223C35.0397 28.963 34.8997 28.7231 34.9997 28.6031C35.053 28.5431 35.1197 28.4432 35.1463 28.3899C35.1663 28.3365 35.3396 28.0633 35.5195 27.7901C35.6995 27.5168 35.9727 27.0837 36.1326 26.8304C36.2926 26.5772 36.4658 26.3039 36.5192 26.224C36.5725 26.144 36.7457 25.8708 36.9057 25.6175C37.0656 25.3643 37.3389 24.9311 37.5188 24.6579C37.6987 24.3846 37.972 23.9514 38.1319 23.7049C38.2919 23.4516 38.4651 23.1784 38.5184 23.0918C38.5718 23.0051 38.745 22.7319 38.905 22.4786C39.0649 22.2321 39.3848 21.7256 39.6181 21.359C39.8513 20.9925 40.1712 20.486 40.3311 20.2394C40.4911 19.9862 40.6644 19.713 40.7177 19.633C40.8243 19.4664 41.3774 18.5934 41.4841 18.4068C41.524 18.3468 41.6707 18.1135 41.8173 17.8936C41.9639 17.6737 42.1105 17.4404 42.1505 17.3805C42.2238 17.2538 42.557 16.7274 43.2168 15.6944C43.45 15.3279 43.8099 14.7547 44.0165 14.4282C44.2231 14.095 44.5363 13.6018 44.7229 13.3286C44.9028 13.0553 45.0761 12.7688 45.1161 12.6955C45.1561 12.6222 45.3294 12.3356 45.5093 12.0624C45.8025 11.6225 46.4889 10.5429 46.6822 10.2097C46.7222 10.1497 46.8688 9.91645 47.0154 9.69653C47.162 9.47661 47.3086 9.24336 47.3486 9.18338C47.4486 9.01678 48.1217 7.93716 48.6148 7.1641C48.8481 6.79757 49.2146 6.21777 49.4279 5.8779C49.6411 5.53135 49.8611 5.18481 49.9144 5.09818C49.9677 5.01154 50.1476 4.72498 50.3142 4.46507C50.4809 4.20516 50.6608 3.91859 50.7141 3.83196C50.7674 3.74532 50.9873 3.39212 51.2006 3.05224C51.4139 2.71236 51.7337 2.20587 51.9203 1.93264C52.1003 1.6594 52.2735 1.37284 52.3135 1.29953C52.3468 1.22622 52.5268 0.932995 52.7134 0.646431C53.0799 0.0666351 53.1066 -7.62939e-06 52.92 -7.62939e-06C52.8467 -7.62939e-06 52.7201 0.126614 52.5934 0.313217Z" fill="white"/>
<path d="M20.8526 10.1627C20.8326 10.176 17.4138 10.196 13.2553 10.196C9.09009 10.2027 5.64465 10.2293 5.598 10.2626C5.5047 10.3226 5.92455 10.989 7.13079 12.6951C7.36404 13.0217 7.77056 13.6081 8.03047 13.9946C8.29038 14.3812 8.6969 14.961 8.93015 15.2942C9.1634 15.6207 9.60991 16.2672 9.91646 16.727C10.4363 17.4867 10.8361 18.0799 11.6558 19.2594C11.8158 19.4993 12.2356 20.1125 12.5888 20.6256C13.5818 22.0918 14.3082 23.1647 14.848 23.9578C15.1279 24.3576 15.6544 25.1373 16.0276 25.6905C16.4008 26.2369 16.8407 26.8834 17.0073 27.1233C17.1672 27.3632 17.4804 27.8097 17.6937 28.1229C17.9069 28.4362 18.0802 28.7361 18.0802 28.8027C18.0736 28.8627 17.9536 29.0826 17.807 29.3025C17.5804 29.6424 17.3272 30.0223 17.0939 30.3955C17.0606 30.4554 16.894 30.722 16.7274 30.9819C16.5608 31.2485 16.3942 31.5151 16.3608 31.575C16.3208 31.635 16.1742 31.8683 16.021 32.0882C15.8743 32.3148 15.7344 32.5347 15.7077 32.588C15.6811 32.6413 15.5145 32.9146 15.3345 33.1878C15.1479 33.461 14.8747 33.8942 14.7148 34.1408C14.5548 34.394 14.3815 34.6673 14.3282 34.7539C14.2749 34.8405 14.095 35.1271 13.9284 35.387C13.7618 35.6469 13.5818 35.9335 13.5285 36.0201C13.4752 36.1068 13.3019 36.38 13.142 36.6332C12.982 36.8798 12.6622 37.3863 12.4289 37.7528C12.1957 38.1194 11.8758 38.6259 11.7158 38.8724C11.5559 39.1257 11.3759 39.4056 11.316 39.5055C11.2493 39.6055 11.176 39.7321 11.1494 39.7854C11.116 39.8388 10.8961 40.1853 10.6562 40.5518C10.4163 40.9184 10.1297 41.3649 10.0231 41.5382C9.91646 41.7181 9.78318 41.9313 9.72986 42.018C9.67655 42.1046 9.50328 42.3779 9.34333 42.6311C9.18339 42.8777 8.86351 43.3842 8.63025 43.7507C8.39701 44.1172 8.07712 44.6237 7.91718 44.8703C7.75723 45.1235 7.5773 45.4034 7.51732 45.5034C7.45068 45.6034 7.37737 45.73 7.35071 45.7833C7.32405 45.8366 7.1841 46.0632 7.03749 46.2831C6.88421 46.5097 6.73093 46.7496 6.68428 46.8229C6.48435 47.1495 5.81792 48.2158 5.4314 48.8156C5.19815 49.1821 4.83161 49.7619 4.61835 50.1018C4.1985 50.7749 4.17851 50.8082 3.732 51.5146C3.56539 51.7745 3.39212 52.0544 3.34547 52.1344C3.29882 52.2143 3.06557 52.5809 2.83232 52.9474C2.59907 53.314 2.23254 53.8937 2.01928 54.2336C1.80602 54.5735 1.5861 54.9267 1.53279 55.0133C0.246579 57.0526 0 57.4525 0 57.5191C0 57.5524 0.0533143 57.5791 0.126621 57.5791C0.199929 57.5791 0.32655 57.4525 0.453172 57.2592C0.5598 57.0859 0.799715 56.7327 0.979651 56.4795C1.35952 55.9464 1.83268 55.2666 2.24587 54.6601C2.57908 54.1803 2.97894 53.6005 3.43211 52.9474C3.61205 52.6875 3.89195 52.2877 4.05855 52.0477C4.2185 51.8078 4.4784 51.4346 4.63168 51.2147C5.20481 50.3883 5.51803 49.9352 5.83125 49.482C6.00453 49.2221 6.28443 48.8289 6.44437 48.5956C7.5573 46.9895 7.85053 46.563 8.43033 45.7167C8.69023 45.3301 9.04344 44.817 9.21671 44.5637C9.74986 43.804 10.1297 43.2442 10.6295 42.5178C10.8894 42.1313 11.2427 41.6248 11.4093 41.3849C11.5692 41.145 11.8691 40.7118 12.069 40.4186C12.7155 39.4856 13.3486 38.5659 13.6285 38.1527C13.7818 37.9328 14.0816 37.4996 14.2949 37.1864C14.7414 36.5333 15.4078 35.567 15.8943 34.8672C16.0743 34.6006 16.2742 34.3074 16.3275 34.2208C16.3808 34.1341 16.5874 33.8276 16.7873 33.541C16.9873 33.2544 17.3671 32.708 17.627 32.3214C17.8936 31.9349 18.2535 31.4084 18.4268 31.1552C18.6067 30.8953 18.9732 30.3621 19.2398 29.9689C19.513 29.5691 19.7929 29.1559 19.8729 29.0493C19.9929 28.8893 20.0062 28.8227 19.9529 28.6694C19.8929 28.5095 19.1865 27.3832 18.8533 26.91C18.7866 26.8101 18.7267 26.7101 18.7267 26.6901C18.7267 26.6701 18.6667 26.5702 18.6 26.4702C18.4001 26.1903 17.5604 24.8974 17.5337 24.8241C17.5204 24.7908 17.3805 24.5775 17.2272 24.3576C17.0739 24.1377 16.9273 23.9111 16.9006 23.8578C16.8207 23.6845 15.9277 22.2984 15.6544 21.9118C15.5878 21.8119 15.5278 21.7186 15.5278 21.6986C15.5278 21.6852 15.3079 21.3387 15.048 20.9322C14.7814 20.5257 14.4415 20.0058 14.3016 19.7792C14.155 19.546 13.8751 19.1062 13.6685 18.7929C13.4685 18.4797 13.1753 18.0132 13.0087 17.76C12.8421 17.5001 12.6288 17.1735 12.5355 17.0269C12.4356 16.8803 12.3356 16.7137 12.3089 16.6604C12.2823 16.607 12.1157 16.3338 11.9357 16.0606C11.7491 15.7873 11.4759 15.3542 11.316 15.1076C11.156 14.8543 10.9761 14.5744 10.9161 14.4745C10.8495 14.3745 10.7762 14.2479 10.7495 14.1946C10.7228 14.1413 10.5762 13.908 10.4163 13.6814C10.2563 13.4482 10.1297 13.2482 10.1297 13.2283C10.1297 13.2149 10.0564 13.0883 9.96311 12.955C9.86981 12.8217 9.79651 12.6818 9.79651 12.6551C9.79651 12.6218 12.0624 12.5951 14.828 12.5951H19.8529L20.5393 13.7347C20.9192 14.3545 21.2791 14.9476 21.3391 15.0476C21.4057 15.1476 21.4923 15.2875 21.5257 15.3608C21.6123 15.5141 21.7456 15.7474 21.9122 16.0073C21.9722 16.1072 22.3387 16.7003 22.7252 17.3268C23.1118 17.9532 23.4716 18.5397 23.5249 18.6263C23.5783 18.713 23.8448 19.1395 24.1114 19.5727C24.378 20.0058 24.7912 20.6589 25.0311 21.0255C25.2643 21.392 25.4776 21.7385 25.5042 21.7919C25.5309 21.8452 25.6775 22.0784 25.8375 22.3117C25.9974 22.5449 26.124 22.7449 26.124 22.7582C26.124 22.8315 26.5439 23.3913 26.5972 23.3913C26.6305 23.3913 26.6905 23.3246 26.7238 23.238C26.7904 23.0981 26.9104 22.8715 27.4702 21.8585C27.7968 21.2587 28.3232 20.2591 29.6294 17.76C29.8627 17.3201 30.6691 15.7274 31.4221 14.2212C32.695 11.6888 32.8683 11.2623 32.6617 11.2623C32.635 11.2623 32.4351 11.5089 32.2218 11.8088C32.0086 12.1153 31.722 12.5085 31.5887 12.6951C31.4554 12.875 31.2022 13.2283 31.0356 13.4815C30.8623 13.7281 30.5824 14.1346 30.4092 14.3812C29.6894 15.4208 28.983 16.4671 27.8701 18.1398C27.2236 19.1195 26.6572 19.9192 26.6238 19.9192C26.5839 19.9259 26.4306 19.6926 26.284 19.406C26.1373 19.1261 25.8641 18.6063 25.6775 18.2598C25.4909 17.9132 25.1977 17.3534 25.0244 17.0269C24.8511 16.6937 24.6179 16.2605 24.5113 16.0606C24.2314 15.5608 24.0114 15.1542 23.5516 14.2945C23.3383 13.888 23.1318 13.5148 23.0918 13.4482C23.0584 13.3882 22.9518 13.1949 22.8585 13.015C22.7652 12.8417 22.6053 12.5485 22.5053 12.3619C22.3054 12.0287 22.0521 11.5555 21.6389 10.8091C21.3457 10.2626 21.2258 10.1294 21.0392 10.1294C20.9525 10.1294 20.8659 10.1427 20.8526 10.1627Z" fill="white"/>
</svg>
